<svg width="1030" height="1080" viewBox="0 0 1030 1080" fill="none" xmlns="http://www.w3.org/2000/svg">
<g clip-path="url(#clip0_104_2)">
<path d="M-563.038 934.38L-556.591 912.242C-550.257 889.969 -537.362 845.695 -502.553 827.751C-467.744 809.808 -410.794 818.466 -374.826 801.396C-338.872 784.567 -323.659 742.039 -296.742 714.352C-269.811 686.424 -230.935 673.366 -205.727 643.886C-180.52 614.406 -168.755 568.774 -142.192 540.922C-115.629 513.071 -74.268 502.999 -45.7551 476.971C-17.3699 451.049 -1.70507 409.063 22.5005 378.119C46.8339 347.069 80.0616 327.225 117.356 312.268C154.65 297.31 196.011 287.238 232.741 271.602C269.471 255.965 301.569 234.764 330.421 209.143C359.145 183.628 384.976 153.858 410.65 124.679C436.565 95.5285 462.563 66.9983 483.252 32.089C504.054 -2.68463 519.434 -43.973 527.237 -64.4815L534.926 -85.1257L351.928 -305L337.234 -292.771C322.541 -280.541 293.154 -256.083 263.766 -231.624C234.379 -207.166 204.992 -182.707 175.35 -158.036C145.835 -133.471 115.937 -108.588 86.4221 -84.0228C56.7795 -59.3516 27.3925 -34.8931 -1.99456 -10.4346C-31.3816 14.0239 -60.7686 38.4824 -90.1557 62.9409C-119.543 87.3994 -148.93 111.858 -178.572 136.529C-208.087 161.094 -237.985 185.978 -267.5 210.543C-297.143 235.214 -326.53 259.672 -355.917 284.131C-385.304 308.589 -414.691 333.048 -444.078 357.506C-473.465 381.965 -502.852 406.423 -532.494 431.095C-562.009 455.659 -591.907 480.543 -621.422 505.108C-651.065 529.779 -680.452 554.238 -709.839 578.696C-739.226 603.155 -768.613 627.613 -783.306 639.843L-798 652.072L-563.038 934.38Z" fill="#00FFFF"/>
<path d="M-590.149 901.806L-578.054 886.455C-566.072 870.968 -541.881 840.266 -518.933 808.071C-495.984 775.876 -474.053 742.46 -450.284 710.731C-426.644 679.109 -400.812 649.339 -364.407 633.053C-327.76 616.797 -280.299 614.054 -250.686 589.867C-221.186 565.545 -209.421 519.913 -182.746 492.197C-155.957 464.617 -114.144 455.088 -74.1086 442.904C-34.3143 430.69 3.94304 415.85 32.1023 389.656C60.3893 363.356 78.932 325.868 96.7969 287.566C114.662 249.263 132.075 210.418 152.538 175.237C173.114 140.192 196.853 108.947 227.06 84.9547C257.14 61.0685 293.816 44.3281 335.417 34.2859C377.034 24.0015 423.817 20.4446 464.613 9.69436C505.523 -0.920205 540.558 -18.5925 558.075 -27.4286L575.593 -36.2647L351.928 -305L337.234 -292.771C322.541 -280.541 293.154 -256.083 263.766 -231.624C234.379 -207.166 204.992 -182.707 175.35 -158.036C145.835 -133.471 115.937 -108.588 86.4221 -84.0228C56.7795 -59.3516 27.3925 -34.8931 -1.99456 -10.4346C-31.3816 14.0239 -60.7686 38.4824 -90.1557 62.9409C-119.543 87.3994 -148.93 111.858 -178.572 136.529C-208.087 161.094 -237.985 185.978 -267.5 210.543C-297.143 235.214 -326.53 259.672 -355.917 284.131C-385.304 308.589 -414.691 333.048 -444.078 357.506C-473.465 381.965 -502.852 406.423 -532.494 431.095C-562.009 455.659 -591.907 480.543 -621.422 505.108C-651.065 529.779 -680.452 554.238 -709.839 578.696C-739.226 603.155 -768.613 627.613 -783.306 639.843L-798 652.072L-590.149 901.806Z" fill="#00E5FF"/>
<path d="M-629.686 854.302L-615.896 840.987C-602.22 827.536 -574.64 800.906 -555.419 764.232C-536.199 727.558 -525.338 680.841 -494.904 657.12C-464.599 633.505 -414.819 632.509 -384.175 609.301C-353.403 585.987 -341.638 540.356 -316.43 510.875C-291.223 481.395 -252.347 468.338 -218.442 449.308C-184.536 430.279 -155.601 405.277 -119.858 387.935C-84.3565 370.564 -42.0326 360.61 -15.9067 331.973C10.347 303.23 20.5305 255.698 49.5787 230.833C78.5139 205.831 126.427 203.632 163.721 188.674C201.016 173.716 227.691 146 244.795 106.264C261.658 66.4975 268.964 14.4687 294.864 -14.4394C321.005 -43.318 365.755 -49.3179 407.793 -58.5753C449.832 -67.8326 488.934 -80.6187 508.598 -86.8761L528.149 -93.2692L351.928 -305L337.234 -292.771C322.541 -280.541 293.154 -256.083 263.766 -231.624C234.379 -207.166 204.992 -182.707 175.35 -158.036C145.835 -133.471 115.937 -108.588 86.4221 -84.0228C56.7795 -59.3516 27.3925 -34.8931 -1.99456 -10.4346C-31.3816 14.0239 -60.7686 38.4824 -90.1557 62.9409C-119.543 87.3994 -148.93 111.858 -178.572 136.529C-208.087 161.094 -237.985 185.978 -267.5 210.543C-297.143 235.214 -326.53 259.672 -355.917 284.131C-385.304 308.589 -414.691 333.048 -444.078 357.506C-473.465 381.965 -502.852 406.423 -532.494 431.095C-562.009 455.659 -591.907 480.543 -621.422 505.108C-651.065 529.779 -680.452 554.238 -709.839 578.696C-739.226 603.155 -768.613 627.613 -783.306 639.843L-798 652.072L-629.686 854.302Z" fill="#00CAFF"/>
<path d="M-723.445 741.65L-708.977 729.149C-694.397 716.785 -665.462 691.783 -634.154 669.632C-602.847 647.481 -569.393 627.908 -530.714 614.095C-492.162 600.388 -448.256 592.334 -416.143 570.891C-383.903 549.342 -363.101 514.568 -335.295 488.209C-307.377 461.986 -272.341 444.314 -243.519 419.177C-214.697 394.04 -192.088 361.438 -162.784 336.36C-133.721 311.252 -97.723 293.697 -63.9156 274.29C-29.9805 254.776 2.11766 233.575 31.6177 209.252C61.2306 185.065 88.3584 157.892 110.968 125.29C133.577 92.6883 151.668 54.6573 180.972 29.579C210.034 4.47121 250.551 -7.65448 281.308 -30.7263C312.307 -53.7688 333.786 -87.7281 362.044 -113.544C390.301 -139.36 425.336 -157.032 442.854 -165.868L460.371 -174.704L351.928 -305L337.234 -292.771C322.541 -280.541 293.154 -256.083 263.766 -231.624C234.379 -207.166 204.992 -182.707 175.35 -158.036C145.835 -133.471 115.937 -108.588 86.4221 -84.0228C56.7795 -59.3516 27.3925 -34.8931 -1.99456 -10.4346C-31.3816 14.0239 -60.7686 38.4824 -90.1557 62.9409C-119.543 87.3994 -148.93 111.858 -178.572 136.529C-208.087 161.094 -237.985 185.978 -267.5 210.543C-297.143 235.214 -326.53 259.672 -355.917 284.131C-385.304 308.589 -414.691 333.048 -444.078 357.506C-473.465 381.965 -502.852 406.423 -532.494 431.095C-562.009 455.659 -591.907 480.543 -621.422 505.108C-651.065 529.779 -680.452 554.238 -709.839 578.696C-739.226 603.155 -768.613 627.613 -783.306 639.843L-798 652.072L-723.445 741.65Z" fill="#2AA4FF"/>
<path d="M-750.556 709.076L-734.168 698.883C-717.78 688.689 -685.004 668.303 -650.76 649.68C-616.402 631.194 -580.689 614.336 -553.08 587.222C-525.599 560.214 -506.319 522.572 -477.369 497.328C-448.291 471.978 -409.415 458.921 -378.786 435.955C-348.043 413.126 -325.434 380.524 -296.612 355.386C-267.789 330.249 -232.754 312.577 -201.417 289.942C-170.208 267.413 -142.569 239.814 -115.088 212.807C-87.5912 185.557 -60.0116 158.926 -30.2857 134.875C-0.559739 110.824 31.5384 89.6227 56.9718 60.4138C82.4051 31.205 101.174 -6.01169 132.511 -28.647C163.72 -51.176 207.625 -59.2299 236.011 -85.152C264.524 -111.18 277.644 -155.183 303.303 -184.121C328.963 -213.058 366.935 -227.202 386.034 -234.138L405.02 -241.209L351.928 -305L337.234 -292.771C322.541 -280.541 293.154 -256.083 263.766 -231.624C234.379 -207.166 204.992 -182.707 175.35 -158.036C145.835 -133.471 115.937 -108.588 86.4221 -84.0228C56.7795 -59.3516 27.3925 -34.8931 -1.99456 -10.4346C-31.3816 14.0239 -60.7686 38.4824 -90.1557 62.9409C-119.543 87.3994 -148.93 111.858 -178.572 136.529C-208.087 161.094 -237.985 185.978 -267.5 210.543C-297.143 235.214 -326.53 259.672 -355.917 284.131C-385.304 308.589 -414.691 333.048 -444.078 357.506C-473.465 381.965 -502.852 406.423 -532.494 431.095C-562.009 455.659 -591.907 480.543 -621.422 505.108C-651.065 529.779 -680.452 554.238 -709.839 578.696C-739.226 603.155 -768.613 627.613 -783.306 639.843L-798 652.072L-750.556 709.076Z" fill="#FF00FF"/>
</g>
<defs>
<clipPath id="clip0_104_2">
<rect width="1496.1" height="1059.5" fill="white" transform="translate(-798 652.072) rotate(-39.7702)"/>
</clipPath>
</defs>
</svg>
