<svg width="1520" height="1020" viewBox="0 0 1520 1020" fill="none" xmlns="http://www.w3.org/2000/svg">
<g clip-path="url(#clip0_104_2)">
<path d="M1592.74 532.042L1586.29 554.179C1579.96 576.452 1567.06 620.726 1532.25 638.67C1497.45 656.613 1440.5 647.955 1404.53 665.026C1368.57 681.854 1353.36 724.382 1326.44 752.069C1299.51 779.997 1260.64 793.055 1235.43 822.535C1210.22 852.015 1198.46 897.647 1171.89 925.499C1145.33 953.35 1103.97 963.422 1075.46 989.45C1047.07 1015.37 1031.41 1057.36 1007.2 1088.3C982.867 1119.35 949.64 1139.2 912.345 1154.15C875.051 1169.11 833.69 1179.18 796.96 1194.82C760.231 1210.46 728.132 1231.66 699.281 1257.28C670.556 1282.79 644.725 1312.56 619.051 1341.74C593.136 1370.89 567.138 1399.42 546.449 1434.33C525.647 1469.11 510.267 1510.39 502.465 1530.9L494.775 1551.55L677.774 1771.42L692.467 1759.19C707.161 1746.96 736.548 1722.5 765.935 1698.05C795.322 1673.59 824.709 1649.13 854.351 1624.46C883.866 1599.89 913.764 1575.01 943.279 1550.44C972.922 1525.77 1002.31 1501.31 1031.7 1476.86C1061.08 1452.4 1090.47 1427.94 1119.86 1403.48C1149.24 1379.02 1178.63 1354.56 1208.27 1329.89C1237.79 1305.33 1267.69 1280.44 1297.2 1255.88C1326.84 1231.21 1356.23 1206.75 1385.62 1182.29C1415 1157.83 1444.39 1133.37 1473.78 1108.91C1503.17 1084.46 1532.55 1060 1562.2 1035.33C1591.71 1010.76 1621.61 985.878 1651.12 961.313C1680.77 936.642 1710.15 912.183 1739.54 887.725C1768.93 863.266 1798.31 838.808 1813.01 826.578L1827.7 814.349L1592.74 532.042Z" fill="#00FFFF"/>
<path d="M1619.85 564.615L1607.76 579.966C1595.77 595.453 1571.58 626.155 1548.63 658.35C1525.69 690.545 1503.75 723.961 1479.99 755.69C1456.34 787.312 1430.51 817.082 1394.11 833.368C1357.46 849.624 1310 852.367 1280.39 876.554C1250.89 900.876 1239.12 946.508 1212.45 974.224C1185.66 1001.8 1143.84 1011.33 1103.81 1023.52C1064.02 1035.73 1025.76 1050.57 997.599 1076.76C969.312 1103.06 950.769 1140.55 932.904 1178.86C915.039 1217.16 897.626 1256 877.163 1291.18C856.587 1326.23 832.848 1357.47 802.641 1381.47C772.561 1405.35 735.886 1422.09 694.284 1432.14C652.667 1442.42 605.884 1445.98 565.088 1456.73C524.179 1467.34 489.143 1485.01 471.626 1493.85L454.108 1502.69L677.774 1771.42L692.467 1759.19C707.161 1746.96 736.548 1722.5 765.935 1698.05C795.322 1673.59 824.709 1649.13 854.351 1624.46C883.866 1599.89 913.764 1575.01 943.279 1550.44C972.922 1525.77 1002.31 1501.31 1031.7 1476.86C1061.08 1452.4 1090.47 1427.94 1119.86 1403.48C1149.24 1379.02 1178.63 1354.56 1208.27 1329.89C1237.79 1305.33 1267.69 1280.44 1297.2 1255.88C1326.84 1231.21 1356.23 1206.75 1385.62 1182.29C1415 1157.83 1444.39 1133.37 1473.78 1108.91C1503.17 1084.46 1532.55 1060 1562.2 1035.33C1591.71 1010.76 1621.61 985.878 1651.12 961.313C1680.77 936.642 1710.15 912.183 1739.54 887.725C1768.93 863.266 1798.31 838.808 1813.01 826.578L1827.7 814.349L1619.85 564.615Z" fill="#00E5FF"/>
<path d="M1659.39 612.119L1645.6 625.434C1631.92 638.885 1604.34 665.515 1585.12 702.189C1565.9 738.863 1555.04 785.58 1524.61 809.301C1494.3 832.916 1444.52 833.912 1413.88 857.12C1383.1 880.434 1371.34 926.065 1346.13 955.546C1320.92 985.026 1282.05 998.083 1248.14 1017.11C1214.24 1036.14 1185.3 1061.14 1149.56 1078.49C1114.06 1095.86 1071.73 1105.81 1045.61 1134.45C1019.35 1163.19 1009.17 1210.72 980.123 1235.59C951.187 1260.59 903.274 1262.79 865.98 1277.75C828.686 1292.7 802.01 1320.42 784.906 1360.16C768.043 1399.92 760.737 1451.95 734.837 1480.86C708.697 1509.74 663.947 1515.74 621.908 1525C579.869 1534.25 540.767 1547.04 521.103 1553.3L501.552 1559.69L677.774 1771.42L692.467 1759.19C707.161 1746.96 736.548 1722.5 765.935 1698.05C795.322 1673.59 824.709 1649.13 854.351 1624.46C883.866 1599.89 913.764 1575.01 943.279 1550.44C972.922 1525.77 1002.31 1501.31 1031.7 1476.86C1061.08 1452.4 1090.47 1427.94 1119.86 1403.48C1149.24 1379.02 1178.63 1354.56 1208.27 1329.89C1237.79 1305.33 1267.69 1280.44 1297.2 1255.88C1326.84 1231.21 1356.23 1206.75 1385.62 1182.29C1415 1157.83 1444.39 1133.37 1473.78 1108.91C1503.17 1084.46 1532.55 1060 1562.2 1035.33C1591.71 1010.76 1621.61 985.878 1651.12 961.313C1680.77 936.642 1710.15 912.183 1739.54 887.725C1768.93 863.266 1798.31 838.808 1813.01 826.578L1827.7 814.349L1659.39 612.119Z" fill="#00CAFF"/>
<path d="M1753.15 724.771L1738.68 737.272C1724.1 749.637 1695.16 774.638 1663.86 796.789C1632.55 818.94 1599.09 838.513 1560.41 852.326C1521.86 866.033 1477.96 874.087 1445.84 895.53C1413.6 917.079 1392.8 951.853 1365 978.212C1337.08 1004.43 1302.04 1022.11 1273.22 1047.24C1244.4 1072.38 1221.79 1104.98 1192.49 1130.06C1163.42 1155.17 1127.42 1172.72 1093.62 1192.13C1059.68 1211.64 1027.58 1232.85 998.084 1257.17C968.471 1281.36 941.343 1308.53 918.733 1341.13C896.124 1373.73 878.033 1411.76 848.73 1436.84C819.667 1461.95 779.15 1474.08 748.393 1497.15C717.395 1520.19 695.915 1554.15 667.658 1579.96C639.4 1605.78 604.365 1623.45 586.847 1632.29L569.33 1641.13L677.774 1771.42L692.467 1759.19C707.161 1746.96 736.548 1722.5 765.935 1698.05C795.322 1673.59 824.709 1649.13 854.351 1624.46C883.866 1599.89 913.764 1575.01 943.279 1550.44C972.922 1525.77 1002.31 1501.31 1031.7 1476.86C1061.08 1452.4 1090.47 1427.94 1119.86 1403.48C1149.24 1379.02 1178.63 1354.56 1208.27 1329.89C1237.79 1305.33 1267.69 1280.44 1297.2 1255.88C1326.84 1231.21 1356.23 1206.75 1385.62 1182.29C1415 1157.83 1444.39 1133.37 1473.78 1108.91C1503.17 1084.46 1532.55 1060 1562.2 1035.33C1591.71 1010.76 1621.61 985.878 1651.12 961.313C1680.77 936.642 1710.15 912.183 1739.54 887.725C1768.93 863.266 1798.31 838.808 1813.01 826.578L1827.7 814.349L1753.15 724.771Z" fill="#2AA4FF"/>
<path d="M1780.26 757.345L1763.87 767.538C1747.48 777.732 1714.71 798.118 1680.46 816.741C1646.1 835.227 1610.39 852.085 1582.78 879.199C1555.3 906.207 1536.02 943.849 1507.07 969.093C1477.99 994.443 1439.12 1007.5 1408.49 1030.47C1377.74 1053.3 1355.13 1085.9 1326.31 1111.03C1297.49 1136.17 1262.46 1153.84 1231.12 1176.48C1199.91 1199.01 1172.27 1226.61 1144.79 1253.61C1117.29 1280.86 1089.71 1307.49 1059.99 1331.55C1030.26 1355.6 998.163 1376.8 972.729 1406.01C947.296 1435.22 928.527 1472.43 897.19 1495.07C865.981 1517.6 822.076 1525.65 793.691 1551.57C765.178 1577.6 752.057 1621.6 726.398 1650.54C700.739 1679.48 662.766 1693.62 643.667 1700.56L624.681 1707.63L677.774 1771.42L692.467 1759.19C707.161 1746.96 736.548 1722.5 765.935 1698.05C795.322 1673.59 824.709 1649.13 854.351 1624.46C883.866 1599.89 913.764 1575.01 943.279 1550.44C972.922 1525.77 1002.31 1501.31 1031.7 1476.86C1061.08 1452.4 1090.47 1427.94 1119.86 1403.48C1149.24 1379.02 1178.63 1354.56 1208.27 1329.89C1237.79 1305.33 1267.69 1280.44 1297.2 1255.88C1326.84 1231.21 1356.23 1206.75 1385.62 1182.29C1415 1157.83 1444.39 1133.37 1473.78 1108.91C1503.17 1084.46 1532.55 1060 1562.2 1035.33C1591.71 1010.76 1621.61 985.878 1651.12 961.313C1680.77 936.642 1710.15 912.183 1739.54 887.725C1768.93 863.266 1798.31 838.808 1813.01 826.578L1827.7 814.349L1780.26 757.345Z" fill="#FF00FF"/>
</g>
<defs>
<clipPath id="clip0_104_2">
<rect width="1496.1" height="1059.5" fill="white" transform="translate(1827.7 814.349) rotate(140.23)"/>
</clipPath>
</defs>
</svg>
